<?xml version="1.0" encoding="UTF-8"?>
<svg id="Layer_2" data-name="Layer 2" xmlns="http://www.w3.org/2000/svg" viewBox="0 0 655.23 137.5">
  <defs>
    <style>
      .cls-1 {
        fill: #ff3000;
      }

      .cls-2 {
        fill: #fff;
        stroke: #ff3000;
        stroke-miterlimit: 10;
        stroke-width: 3px;
      }
    </style>
  </defs>
  <g id="Layer_13" data-name="Layer 13">
    <g>
      <path class="cls-1" d="M23.54,41.38v46.72c0,17.63,11.96,26.44,35.89,26.44h38.5V41.38h23.29v95.9H53.4c-8.13,0-15.46-1.1-21.99-3.29-6.53-2.19-12.1-5.43-16.71-9.73-4.61-4.29-8.18-9.59-10.69-15.89C1.5,102.07,.25,94.81,.25,86.59V41.38H23.54Z"/>
      <g>
        <path class="cls-1" d="M270.54,41.38v46.72c0,17.63,11.96,26.44,35.89,26.44h38.5V41.38h23.29v95.9h-67.81c-8.13,0-15.46-1.1-21.99-3.29-6.53-2.19-12.1-5.43-16.71-9.73-4.61-4.29-8.18-9.59-10.69-15.89-2.51-6.3-3.77-13.56-3.77-21.78V41.38h23.29Z"/>
        <path class="cls-1" d="M419.04,78.65h54.53c4.75,0,8.45-1.25,11.1-3.77,2.65-2.51,4.34-6.14,5.07-10.89h-81.51v73.29h-23.29V41.38h127.41v18.36c0,24.2-11.78,37.54-35.35,40l36.44,37.54h-28.22l-36.99-37.13h-29.18v-21.51Z"/>
        <path class="cls-1" d="M655.23,41.38v48.22c0,7.49-1.05,14.18-3.15,20.07-2.1,5.89-5.18,10.89-9.25,15-4.06,4.11-9.07,7.24-15,9.38-5.94,2.15-12.74,3.22-20.41,3.22h-78.23v-22.74h77.68c7.12,0,12.54-1.21,16.23-3.63,3.7-2.42,6.19-5.96,7.47-10.62h-101.38V41.38h23.29v37.95h79.46V41.38h23.29Z"/>
      </g>
      <g>
        <path class="cls-1" d="M173.25,116.34h36.85c4.84,0,8.58-1.46,11.23-4.38,2.65-2.92,4.34-6.94,5.07-12.06h22.1V41.5h-3l-72.25,74.84Z"/>
        <path class="cls-1" d="M120.6,137.03h3.67c-.18,.15-.35,.31-.52,.47h-3.25V41.5h11.06v20.18h63.56l-74.52,75.35Z"/>
      </g>
      <rect class="cls-1" width="655" height="23"/>
      <path class="cls-2" d="M248.5,98.5v7.77c-3.99,17.11-16.19,26.86-36.58,29.23H122.5c.02-.17,.04-.34,.06-.5h77.8c29.58,0,45.62-12.17,48.14-36.5Z"/>
    </g>
  </g>
</svg>